<svg width="24" height="57" fill="none" xmlns="http://www.w3.org/2000/svg"><path d="M20.173 44.897c-.684-2.19-2.736-4.585-2.736-4.585s-3.078 5.27-1.3 8.486c-1.641-1.3-3.078-2.806-4.24-4.517.615-.547 2.872-2.532 2.872-5.133 0-2.19-1.094-4.928-1.094-4.928s-4.104 3.765-3.557 7.255a28.894 28.894 0 01-2.19-5.201c.753-.274 3.353-1.506 4.037-3.833.615-2.053.41-4.928.41-4.928s-4.651 2.19-5.267 5.407c-.274-1.643-.479-3.354-.479-5.065.89-.136 3.489-.752 4.652-2.874 1.026-1.848 1.436-4.723 1.436-4.723s-4.24.959-5.883 3.56c.206-1.643.48-3.286.958-4.928.479.137 3.215.684 4.994-.89 1.505-1.3 2.736-3.627 2.736-3.627s-5.062-.753-6.91 1.984a24.903 24.903 0 012.053-4.311c.479.205 2.805 1.163 4.72 0 1.573-.959 3.078-2.875 3.078-2.875s-3.625-1.3-5.883.069c.753-1.027 1.574-1.985 2.326-2.875.89.068 3.078.068 4.583-1.437 1.437-1.37 2.531-3.764 2.531-3.764S15.453.89 14.838 5.27v.137c-.48.479-.958 1.026-1.437 1.574C14.564 3.627 12.922 0 12.922 0s-2.599 2.943-3.078 4.996c-.684 3.08.753 4.723 1.163 5.133a30.043 30.043 0 00-1.847 3.217c.205-3.627-2.12-6.707-2.12-6.707s-2.053 3.696-2.12 5.954c-.07 3.354 1.846 4.791 2.393 5.065-.479 1.505-.889 3.011-1.163 4.517-.82-4.038-4.72-6.639-4.72-6.639s-.889 4.517-.136 6.844c1.23 3.628 3.83 4.312 4.378 4.38-.069 1.095 0 2.19.068 3.286C3.825 27.103.268 25.802.268 25.802s.068 4.586 1.3 6.639c1.846 3.011 4.377 3.217 5.13 3.217a32.306 32.306 0 001.23 3.627C5.057 36.89 1.02 36.753 1.02 36.753s1.505 4.448 3.352 6.091c3.146 2.738 6.156 1.506 6.361 1.437.684 1.027 1.505 1.917 2.326 2.806-3.762-1.3-8.003.206-8.003.206s3.147 3.764 5.677 4.654c3.626 1.232 6.088-.411 6.704-.959l5.746 5.544.205-1.163s-2.462-2.396-4.583-4.312c.342-.548 2.19-3.49 1.368-6.16z" fill="url(#paint0_linear)"/><path d="M7.792 18.684c0-.068.069-.205.069-.273 0 .136 0 .273-.069.273z" fill="url(#paint1_linear)"/><path d="M6.355 27.103c0 5.133 1.3 9.924 3.557 14.099a31.174 31.174 0 01-2.052-4.928c.753-.274 3.352-1.506 4.036-3.833.616-2.053.41-4.928.41-4.928s-4.651 2.19-5.267 5.407c-.273-1.642-.478-3.354-.478-5.065.889-.136 3.488-.752 4.651-2.874 1.026-1.848 1.437-4.722 1.437-4.722s-4.173.958-5.815 3.558c.205-1.642.479-3.285.958-4.927.479.137 3.215.684 4.993-.89 1.505-1.3 2.736-3.627 2.736-3.627s-5.061-.753-6.908 1.985a24.903 24.903 0 012.052-4.312c.479.205 2.804 1.163 4.72 0 1.573-.958 3.078-2.875 3.078-2.875s-3.626-1.3-5.883.069c.753-1.027 1.573-1.985 2.326-2.875.89.069 3.078.069 4.583-1.437 1.436-1.369 2.53-3.764 2.53-3.764h-.067C12.716 5.886 6.354 15.742 6.354 27.103z" fill="url(#paint2_linear)"/><path d="M14.77 39.217c0-2.19-1.095-4.928-1.095-4.928s-4.105 3.764-3.557 7.186c.547.959 1.162 1.917 1.778 2.875.616-.548 2.873-2.6 2.873-5.133z" fill="url(#paint3_linear)"/><path d="M18.873 51.194l-.137-.137c.41-.547 2.258-3.49 1.369-6.16-.684-2.19-2.737-4.585-2.737-4.585s-3.078 5.27-1.3 8.487a25 25 0 01-3.967-4.107c1.984 2.532 4.241 4.723 6.772 6.502z" fill="url(#paint4_linear)"/><defs><linearGradient id="paint0_linear" x1="15.123" y1="-3.688" x2="10.422" y2="59.005" gradientUnits="userSpaceOnUse"><stop stop-color="#F29100"/><stop offset="1" stop-color="#EF7F00"/></linearGradient><linearGradient id="paint1_linear" x1="8.09" y1="18.346" x2="7.768" y2="18.668" gradientUnits="userSpaceOnUse"><stop stop-color="#F29100"/><stop offset="1" stop-color="#EF7F00"/></linearGradient><linearGradient id="paint2_linear" x1="15.769" y1="43.697" x2="10.029" y2="-64.1" gradientUnits="userSpaceOnUse"><stop stop-color="#F29B00"/><stop offset="1" stop-color="#EF7F00"/></linearGradient><linearGradient id="paint3_linear" x1="12.595" y1="43.866" x2="6.856" y2="-63.931" gradientUnits="userSpaceOnUse"><stop stop-color="#F29B00"/><stop offset="1" stop-color="#EF7F00"/></linearGradient><linearGradient id="paint4_linear" x1="16.183" y1="43.675" x2="10.444" y2="-64.122" gradientUnits="userSpaceOnUse"><stop stop-color="#F29B00"/><stop offset="1" stop-color="#EF7F00"/></linearGradient></defs></svg>