<svg width="44" height="43" viewBox="0 0 44 43" fill="none" xmlns="http://www.w3.org/2000/svg"><path d="M21.952 42.712L27.9 9.236c5.669 0 7.456.623 7.715 3.162 0 0 3.802-1.42 5.72-4.301C33.85 4.626 26.33 4.469 26.33 4.469l-4.387 5.35.01-.001-4.388-5.35s-7.52.157-15.003 3.628c1.916 2.882 5.72 4.301 5.72 4.301.26-2.54 2.045-3.161 7.676-3.165l5.994 33.48z" fill="#E82127"/><path d="M21.95 2.924c6.05-.046 12.974.937 20.063 4.029.948-1.707 1.191-2.461 1.191-2.461C35.455 1.423 28.198.373 21.949.347 15.7.373 8.444 1.423.696 4.492c0 0 .346.929 1.19 2.461C8.974 3.861 15.9 2.878 21.95 2.923h.001z" fill="#E82127"/></svg>