<svg width="47" height="43" viewBox="0 0 47 43" fill="none" xmlns="http://www.w3.org/2000/svg"><path d="M.591 32.747c.138-.22.36-.234.663-.041C8.158 36.702 15.669 38.7 23.788 38.7c5.412 0 10.756-1.006 16.03-3.018a54 54 0 00.6-.248c.263-.11.45-.194.56-.249.414-.165.739-.082.973.248.235.331.159.635-.228.91a29.24 29.24 0 01-1.905 1.24c-2.375 1.406-5.026 2.495-7.953 3.267-2.927.772-5.785 1.158-8.574 1.158-4.308 0-8.382-.751-12.22-2.254A33.658 33.658 0 01.757 33.408c-.166-.137-.249-.275-.249-.413 0-.083.028-.165.083-.248zM13.06 20.963c0-1.902.47-3.529 1.409-4.88.938-1.35 2.223-2.37 3.852-3.059 1.491-.634 3.327-1.089 5.509-1.364.746-.083 1.96-.193 3.645-.331v-.703c0-1.764-.193-2.95-.58-3.556-.58-.827-1.491-1.24-2.734-1.24h-.331c-.911.082-1.698.372-2.361.868-.663.496-1.09 1.185-1.284 2.067-.11.552-.387.869-.829.951l-4.763-.579c-.47-.11-.704-.358-.704-.744 0-.083.013-.179.041-.29.47-2.453 1.622-4.272 3.459-5.457C19.224 1.46 21.37.799 23.829.66h1.035c3.149 0 5.606.813 7.374 2.44.277.277.533.574.766.889.235.317.421.6.56.847.137.248.261.607.372 1.075.11.469.193.793.249.972.055.18.096.565.124 1.158.027.592.041.944.041 1.054v10.006c0 .717.104 1.372.31 1.964.208.593.408 1.02.602 1.282.193.262.51.682.952 1.261.166.248.249.469.249.662 0 .22-.11.413-.332.578-2.292 1.985-3.534 3.06-3.728 3.226-.331.248-.731.275-1.2.082a14 14 0 01-1.016-.95 35.25 35.25 0 01-.621-.662 9.241 9.241 0 01-.6-.807c-.277-.4-.47-.668-.58-.806-1.547 1.682-3.066 2.73-4.557 3.143-.939.275-2.099.413-3.48.413-2.126 0-3.872-.655-5.24-1.964-1.366-1.31-2.05-3.163-2.05-5.561zm7.125-.827c0 1.075.27 1.936.808 2.584.538.648 1.263.972 2.174.972.083 0 .2-.014.352-.042.152-.027.256-.04.311-.04 1.16-.304 2.057-1.048 2.692-2.234a6.463 6.463 0 00.684-1.716c.152-.62.235-1.123.248-1.509.014-.386.021-1.02.021-1.902v-1.033c-1.602 0-2.817.11-3.645.33-2.43.69-3.645 2.22-3.645 4.59zM37.58 33.45c.055-.11.138-.22.249-.331.69-.469 1.353-.786 1.988-.951a13.531 13.531 0 013.065-.455c.276-.027.539-.014.787.042 1.243.11 1.988.317 2.237.62.11.165.166.413.166.744v.29c0 .964-.263 2.101-.787 3.41-.525 1.31-1.257 2.364-2.196 3.164-.138.11-.262.165-.373.165a.368.368 0 01-.165-.041c-.166-.083-.207-.234-.124-.455 1.021-2.398 1.532-4.066 1.532-5.003 0-.303-.055-.524-.166-.662-.276-.33-1.049-.496-2.32-.496-.469 0-1.02.028-1.656.083-.69.083-1.325.165-1.905.248-.166 0-.277-.028-.332-.083-.055-.055-.069-.11-.041-.165 0-.028.014-.07.041-.124z" fill="#000"/><path d="M1.254 32.705c-.304-.193-.525-.18-.663.041a.444.444 0 00-.083.248c0 .138.083.276.248.414a33.66 33.66 0 0010.315 6.347c3.838 1.502 7.911 2.253 12.22 2.253 2.788 0 5.646-.386 8.574-1.158 2.927-.771 5.578-1.86 7.953-3.266a29.351 29.351 0 001.905-1.24c.387-.276.463-.58.228-.91-.235-.33-.56-.414-.974-.248-.11.055-.296.138-.559.248-.262.11-.462.193-.6.248C34.543 37.694 29.2 38.7 23.788 38.7c-8.12 0-15.63-1.998-22.534-5.995z" fill="#F90"/><path d="M37.83 33.118a1.31 1.31 0 00-.25.331.317.317 0 00-.04.124c-.028.055-.014.11.04.166.056.055.166.082.332.082a92.21 92.21 0 011.906-.248 19.512 19.512 0 011.657-.082c1.27 0 2.043.165 2.32.496.11.138.165.358.165.661 0 .938-.511 2.605-1.533 5.003-.083.22-.041.372.124.455.056.028.11.042.166.042.11 0 .235-.056.373-.166.939-.8 1.67-1.854 2.195-3.163.525-1.31.787-2.446.787-3.411v-.29c0-.33-.055-.578-.165-.744-.249-.303-.994-.51-2.237-.62a2.481 2.481 0 00-.787-.041c-.994.027-2.016.179-3.065.454-.636.166-1.298.483-1.989.951z" fill="#F90"/></svg>