<svg width="42" height="43" viewBox="0 0 42 43" fill="none" xmlns="http://www.w3.org/2000/svg"><path d="M41.302 21.81c0-1.406-.114-2.819-.358-4.201h-19.56v7.961h11.201a9.568 9.568 0 01-4.145 6.283v5.166h6.682c3.924-3.6 6.18-8.919 6.18-15.21z" fill="#4285F4"/><path d="M21.384 42.01c5.593 0 10.31-1.83 13.746-4.99l-6.682-5.167c-1.86 1.261-4.26 1.975-7.056 1.975-5.41 0-9.997-3.639-11.643-8.531H2.853v5.325c3.52 6.982 10.69 11.389 18.531 11.389z" fill="#34A853"/><path d="M9.741 25.297a12.35 12.35 0 010-7.916v-5.326H2.853a20.639 20.639 0 000 18.567l6.888-5.325z" fill="#FBBC04"/><path d="M21.384 8.841a11.287 11.287 0 017.955 3.1l5.92-5.903A19.963 19.963 0 0021.384.66a20.74 20.74 0 00-18.53 11.396l6.888 5.326c1.638-4.9 6.232-8.54 11.642-8.54z" fill="#EA4335"/></svg>