<svg width="36" height="43" viewBox="0 0 36 43" fill="none" xmlns="http://www.w3.org/2000/svg"><path d="M34.776 32.884a22.411 22.411 0 01-2.248 3.998c-1.182 1.666-2.15 2.82-2.897 3.46-1.156 1.053-2.395 1.591-3.722 1.622-.953 0-2.101-.268-3.438-.812-1.342-.541-2.575-.81-3.702-.81-1.183 0-2.45.269-3.807.81-1.358.544-2.453.827-3.29.855-1.272.054-2.54-.5-3.806-1.664-.808-.697-1.818-1.892-3.03-3.584-1.298-1.807-2.366-3.903-3.203-6.292-.896-2.58-1.345-5.08-1.345-7.499 0-2.771.606-5.161 1.819-7.164a10.608 10.608 0 013.809-3.81 10.333 10.333 0 015.15-1.437c1.01 0 2.335.31 3.982.917 1.642.61 2.697.918 3.16.918.345 0 1.516-.361 3.502-1.082 1.878-.668 3.463-.945 4.762-.836 3.518.281 6.162 1.653 7.92 4.124-3.147 1.885-4.704 4.525-4.673 7.913.029 2.639.997 4.834 2.9 6.578a9.54 9.54 0 002.895 1.878 30.735 30.735 0 01-.738 1.917zm-8.07-31.399c0 2.068-.764 4-2.287 5.787-1.838 2.124-4.06 3.352-6.471 3.159a6.37 6.37 0 01-.049-.784c0-1.985.874-4.11 2.426-5.847.775-.88 1.76-1.611 2.956-2.195 1.193-.575 2.32-.892 3.382-.947.03.277.044.553.044.827z" fill="#000"/></svg>