<svg width="57" height="43" viewBox="0 0 57 43" fill="none" xmlns="http://www.w3.org/2000/svg"><path d="M56.42 40.702c0 .603-.443 1.007-.968 1.007v-.004c-.54.004-.975-.4-.975-1.003 0-.602.435-1.005.975-1.005.525 0 .968.403.968 1.005zm.393 0c0-.827-.644-1.307-1.361-1.307-.722 0-1.366.48-1.366 1.307s.644 1.309 1.366 1.309c.718 0 1.361-.482 1.361-1.309zm-1.587.11h.146l.338.592h.37l-.374-.616c.194-.014.353-.106.353-.365 0-.323-.223-.427-.6-.427h-.547v1.408h.314v-.591zm0-.238v-.339h.219c.118 0 .28.01.28.154 0 .158-.083.185-.224.185h-.275zm-7.58-7.076l1.697 4.633h-3.447l1.75-4.633zm-1.818-1.804l-3.911 9.888h2.762l.619-1.747h4.628l.586 1.747h2.998l-3.94-9.889-3.742.001zm-7.852 9.892h2.802v-9.895h-2.803v9.895zm-19.453-9.895l-2.338 7.842-2.24-7.842h-3.023l3.199 9.895h4.037l3.224-9.895h-2.859zm11.327 2.154h1.204c1.747 0 2.877.783 2.877 2.814 0 2.032-1.13 2.815-2.877 2.815H29.85v-5.629zm-2.779-2.154v9.895h4.543c2.42 0 3.21-.401 4.065-1.302.604-.632.994-2.02.994-3.537 0-1.391-.33-2.631-.906-3.404-1.038-1.382-2.534-1.652-4.765-1.652h-3.931zM.528 31.677v9.91h2.825v-7.525h2.19c.725 0 1.242.18 1.59.553.444.47.625 1.23.625 2.62v4.351h2.738v-5.475c0-3.907-2.496-4.434-4.939-4.434H.527zm22.033.014l.001 9.895h2.801v-9.895h-2.802z" fill="#000"/><path d="M8.058 11.988s3.604-5.306 10.8-5.855V4.208c-7.97.639-14.872 7.375-14.872 7.375S7.895 22.859 18.858 23.89v-2.046c-8.045-1.01-10.8-9.857-10.8-9.857zm10.8 5.788v1.874c-6.08-1.082-7.768-7.389-7.768-7.389s2.92-3.227 7.768-3.75v2.056l-.01-.001c-2.544-.305-4.532 2.067-4.532 2.067s1.114 3.994 4.542 5.143zm0-17.118v3.55c.234-.018.468-.033.703-.04 9.062-.306 14.966 7.415 14.966 7.415s-6.781 8.227-13.846 8.227a10.5 10.5 0 01-1.823-.16v2.195c.487.062.992.098 1.518.098 6.575 0 11.329-3.35 15.933-7.315.763.61 3.888 2.094 4.53 2.743-4.377 3.657-14.578 6.604-20.362 6.604-.557 0-1.093-.033-1.619-.084v3.085h24.988V.658H18.858zm0 7.853V6.133c.232-.016.465-.028.703-.036 6.516-.204 10.791 5.587 10.791 5.587s-4.617 6.4-9.568 6.4a6.011 6.011 0 01-1.926-.308v-7.209c2.537.306 3.047 1.424 4.572 3.96l3.392-2.853s-2.476-3.24-6.65-3.24c-.453 0-.888.031-1.314.077z" fill="#77B900"/></svg>